<svg xmlns="http://www.w3.org/2000/svg" viewBox="0 0 110.369 110.369" height="417.1426" width="417.1426"><path d="M55.1847 5.5184A49.666 49.666 0 0037.1993 8.89v37.468c2.7285-4.1755 5.9326-7.2971 9.612-9.3642 3.7207-2.067 7.9995-3.1002 12.8364-3.1002 7.9788 0 14.0145 2.4804 18.1073 7.4414 4.0927 4.9196 6.1391 12.175 6.1391 21.766v32.5358a49.666 49.666 0 0020.9564-40.4524A49.666 49.666 0 0055.1847 5.5184zM25.727 15.2676A49.666 49.666 0 005.5184 55.1843 49.666 49.666 0 0025.727 95.1009zm31.378 28.5476c-6.1598 0-11.0172 1.9638-14.5725 5.8912-3.5554 3.9275-5.3332 9.281-5.3332 16.061v35.6573a49.666 49.666 0 0017.9854 3.4258 49.666 49.666 0 0017.2994-3.144V63.473c0-6.5732-1.2817-11.4931-3.8449-14.759-2.5631-3.266-6.4078-4.8988-11.5341-4.8988z" fill="#24292e"/></svg>