<svg xmlns="http://www.w3.org/2000/svg" width="561.2312" height="561.2312" viewBox="0 0 148.4924 148.4924"><defs><filter id="a" color-interpolation-filters="sRGB"><feFlood flood-opacity="1" flood-color="#5C5C5C" result="flood"/><feComposite in="flood" in2="SourceGraphic" operator="in" result="composite1"/><feGaussianBlur in="composite1" result="blur"/><feOffset dx=".6" dy=".6" result="offset"/><feComposite in="SourceGraphic" in2="offset" result="composite2"/></filter></defs><path fill="#f2f2f2" paint-order="markers fill stroke" d="M23.6463-23.6463l148.4924 148.4925-24.7688 24.7688L-1.1225 1.1226z"/><path d="M0 0l148.4924 148.4924" fill="none" stroke="#b6b6b6" stroke-width=".865" stroke-linecap="round" stroke-dasharray="3.46000004,3.46000004" paint-order="fill markers stroke"/><path d="M22.5238-22.5238l148.4924 148.4924" fill="none" stroke="#b6b6b6" stroke-width=".865" stroke-linecap="round" stroke-dasharray="3.46000008,3.46000008" paint-order="fill markers stroke"/><g aria-label="Fork me on GitHub" style="line-height:1.25" font-weight="700" font-size="15.5222" font-family="Helvetica" letter-spacing="0" word-spacing="0" stroke-width=".2646" filter="url(#a)" transform="rotate(45 282.3661 -310.5969)"><path d="M338.3385 87.19h7.9203v1.963h-5.601v2.5694h4.9037v1.9403h-4.9037v4.684h-2.3193zM351.352 96.8232q.9474 0 1.4552-.6745.5078-.6746.5078-1.9176 0-1.243-.5078-1.91-.5078-.6745-1.4552-.6745t-1.4628.6746q-.5078.667-.5078 1.91 0 1.243.5078 1.9175.5154.6745 1.4628.6745zm4.2292-2.592q0 1.819-1.046 3.115-1.0458 1.2885-3.1756 1.2885-2.1298 0-3.1757-1.2885-1.046-1.296-1.046-3.115 0-1.7887 1.046-3.1 1.046-1.3112 3.1757-1.3112 2.1298 0 3.1757 1.3112 1.046 1.3113 1.046 3.1zm-4.2216-4.3657zM361.6143 89.8883q.0606 0 .0985.0076.0455 0 .1894.0076v2.213q-.2046-.0227-.3638-.0302-.1591-.0076-.2577-.0076-1.3036 0-1.7507.8488-.2502.4775-.2502 1.4704v3.9488h-2.1752v-8.2614h2.0616v1.44q.5002-.826.8716-1.1292.6063-.5078 1.5764-.5078zM363.1453 87.2128h2.1221v6.0179l2.6907-3.1075h2.6754l-2.8877 3.1605 3.0014 5.063H368.14l-1.9782-3.532-.8943.9323v2.5997h-2.1222zM385.3448 89.9034q.5457 0 1.0762.2122.5306.2123.9626.7428.3486.432.4699 1.061.0758.417.0758 1.2203l-.0152 5.207h-2.2131v-5.26q0-.47-.1516-.773-.288-.5761-1.061-.5761-.8944 0-1.2355.7427-.1743.3942-.1743.9474v4.919h-2.1752v-4.919q0-.7351-.1516-1.0686-.2729-.5988-1.0687-.5988-.9247 0-1.243.5988-.1743.341-.1743 1.0156v4.972h-2.1904v-8.2462h2.0994v1.205q.4017-.6442.758-.917.629-.485 1.6295-.485.9474 0 1.531.4168.47.3865.7124.9929.4245-.7277 1.0536-1.0687.667-.341 1.4855-.341zM393.1741 91.6466q-.7503 0-1.1672.47-.4093.4699-.5154 1.2733h3.3576q-.053-.8565-.523-1.296-.4623-.4473-1.152-.4473zm0-1.781q1.0308 0 1.857.3865.826.3865 1.3642 1.2202.485.7352.629 1.7053.0834.5685.0682 1.6371h-5.654q.0455 1.243.7806 1.7433.4472.3107 1.0763.3107.667 0 1.0838-.379.2274-.2046.4017-.5684h2.2055q-.0834.7352-.7655 1.4931-1.061 1.2051-2.971 1.2051-1.5765 0-2.7816-1.0156-1.205-1.0156-1.205-3.3045 0-2.145 1.0838-3.2894 1.0914-1.1445 2.827-1.1445zm.1516 0zM406.5666 96.8232q.9474 0 1.4552-.6745.5078-.6746.5078-1.9176 0-1.243-.5078-1.91-.5078-.6745-1.4552-.6745t-1.4628.6746q-.5078.667-.5078 1.91 0 1.243.5078 1.9175.5154.6745 1.4628.6745zm4.2292-2.592q0 1.819-1.046 3.115-1.0459 1.2885-3.1757 1.2885-2.1297 0-3.1756-1.2885-1.046-1.296-1.046-3.115 0-1.7887 1.046-3.1 1.0459-1.3112 3.1756-1.3112 2.1298 0 3.1757 1.3112 1.046 1.3113 1.046 3.1zm-4.2217-4.3657zM416.9198 89.8883q1.2808 0 2.0918.6745.8186.667.8186 2.2207v5.5632h-2.2132v-5.025q0-.6519-.1743-1.0005-.3183-.6367-1.2127-.6367-1.099 0-1.5082.9323-.2122.4926-.2122 1.2581v4.4718h-2.1525v-8.2462h2.0843v1.205q.4168-.6366.7882-.917.667-.5002 1.6902-.5002zm-.7959-.0228zM433.8214 90.6613q-.2653-1.1444-1.296-1.5992-.576-.25-1.281-.25-1.349 0-2.2206 1.0231-.864 1.0156-.864 3.062 0 2.0616.9398 2.918.9398.8565 2.1373.8565 1.1748 0 1.9251-.6746.7504-.6821.9247-1.7811h-2.5845v-1.8645h4.6536v5.9952h-1.5462l-.235-1.3946q-.6745.7958-1.2126 1.1217-.9246.5684-2.2737.5684-2.2208 0-3.638-1.5385-1.478-1.5462-1.478-4.2292 0-2.7134 1.493-4.3505 1.4932-1.6371 3.9489-1.6371 2.1297 0 3.4182 1.0838 1.296 1.0763 1.4855 2.6906zm-2.6148-3.7744zM440.4305 89.1H438.24v-1.9933h2.1904zm-2.1904.9853h2.1904v8.2614H438.24zM441.6735 91.6997V90.161h1.152v-2.304h2.1374v2.304h1.3415v1.5386h-1.3415v4.3656q0 .5078.1288.6367.1288.1212.7882.1212h.2047q.1137-.0076.2198-.0151v1.6143l-1.0232.038q-1.531.053-2.0919-.5306-.3638-.3714-.3638-1.1445v-5.0856zM447.8505 98.3467V87.1749h2.3117v4.2595h4.3656V87.175h2.3192v11.1718h-2.3192v-4.9872h-4.3656v4.9872zM461.0535 90.0853v4.9796q0 .7048.1668 1.061.2955.6291 1.1596.6291 1.1065 0 1.5158-.8943.2122-.485.2122-1.281v-4.4944h2.1904v8.2614h-2.0994v-1.1672q-.0303.0379-.1516.2273-.1213.1895-.288.3335-.5078.4548-.9853.6215-.47.1668-1.1066.1668-1.8341 0-2.4708-1.3188-.3562-.7276-.3562-2.145v-4.9795zm1.5159-.2198zM472.8468 89.9034q1.6295 0 2.5466 1.1748.9246 1.1748.9246 3.0317 0 1.9251-.9095 3.1908-.9095 1.2658-2.539 1.2658-1.0232 0-1.6447-.4093-.3714-.2426-.8034-.8489v1.0384h-2.1146V87.19h2.1525v3.9715q.4093-.576.902-.8792.5835-.379 1.4855-.379zm-.5533 6.882q.8337 0 1.296-.6746.4624-.6746.4624-1.7735 0-.8792-.2274-1.4553-.432-1.0914-1.5916-1.0914-1.1748 0-1.6144 1.0687-.2274.5684-.2274 1.4704 0 1.061.47 1.7584.4698.6972 1.4324.6972z" style="-inkscape-font-specification:'Helvetica Bold'"/></g></svg>