<svg width="417.146" height="417.146" viewBox="0 0 110.37 110.37" xmlns="http://www.w3.org/2000/svg">
  <path d="M55.183 5.518A49.665 49.665 0 0 0 37.198 8.89v37.468c2.728-4.175 5.932-7.297 9.612-9.364 3.72-2.067 8-3.1 12.836-3.1 7.979 0 14.014 2.48 18.107 7.441 4.093 4.92 6.139 12.175 6.139 21.766v32.535a49.665 49.665 0 0 0 20.956-40.452A49.665 49.665 0 0 0 55.183 5.518zm-29.458 9.75A49.665 49.665 0 0 0 5.517 55.183 49.665 49.665 0 0 0 25.725 95.1zm31.377 28.545c-6.16 0-11.017 1.964-14.572 5.892-3.556 3.927-5.333 9.28-5.333 16.06v35.657a49.665 49.665 0 0 0 17.985 3.425 49.665 49.665 0 0 0 17.299-3.143V63.47c0-6.573-1.282-11.493-3.845-14.76s-6.408-4.898-11.534-4.898z"/>
</svg>
