<svg xmlns="http://www.w3.org/2000/svg" viewBox="0 0 29.633 29.633" height="112" width="112">
  <defs>
    <filter id="a" color-interpolation-filters="sRGB">
      <feFlood result="flood" flood-color="#000" flood-opacity="1"/>
      <feComposite result="composite1" operator="in" in2="SourceGraphic" in="flood"/>
      <feGaussianBlur result="blur" stdDeviation=".5" in="composite1"/>
      <feOffset result="offset"/>
      <feComposite result="composite2" in2="offset" in="SourceGraphic"/>
    </filter>
  </defs>
  <path transform="scale(.26458)" d="M5.58 0L112 106.418V62.965L49.037 0H5.58z" fill="#fff" filter="url(#a)"/>
  <g style="line-height:1.25;-inkscape-font-specification:'Fira Code, Bold';font-variant-ligatures:normal;font-variant-caps:normal;font-variant-numeric:normal;font-feature-settings:normal;text-align:start" aria-label="Fork me on GitHub" font-weight="700" font-size="1.945" font-family="Fira Code" letter-spacing="0" word-spacing="0" stroke-width=".121">
    <path style="-inkscape-font-specification:'Fira Code, Bold';font-variant-ligatures:normal;font-variant-caps:normal;font-variant-numeric:normal;font-feature-settings:normal;text-align:start" d="M12.176 4.22l.37.384.18-.142-.615-.637-.936.97.223.232.372-.385.326.338.16-.165-.327-.339zM12.986 5.135c-.22-.228-.502-.201-.73.035-.242.25-.255.53-.034.758.22.228.491.213.732-.037.23-.238.254-.526.032-.756zm-.158.164c.088.091.06.203-.094.364-.161.167-.268.193-.356.102-.088-.09-.062-.201.098-.366.156-.163.264-.19.352-.1zM14.03 6.223c-.115-.12-.253-.139-.427-.065l.123-.206-.258-.267-.142.147.095.098-.433.448-.094-.098-.143.149.45.466.143-.149-.142-.147.205-.212c.14-.077.282-.094.377-.024l-.131.136.135.14.34-.27a.45.45 0 0 0-.098-.146zM14.793 6.42l-.237-.198-1.002 1.04.213.22zm.159.803l-.223-.23-.56.09-.159.651.244.253.144-.68zM16.446 8.722c-.064-.067-.15-.083-.243-.076.042-.077.029-.147-.025-.203-.064-.065-.138-.075-.244-.058l.054-.087-.155-.161-.717.743.185.192.528-.547c.065-.009.1.005.122.028.028.029.016.056-.034.107l-.507.525.152.157.528-.547c.065-.009.098.004.121.028.029.03.017.056-.033.108l-.507.525.182.189.531-.55c.148-.153.164-.268.062-.373zM16.465 9.665l.464.482a.998.998 0 0 0 .082-.076c.23-.24.237-.518.032-.73-.226-.235-.522-.186-.734.034-.222.231-.254.527-.008.782.122.126.26.185.385.194l.031-.208a.477.477 0 0 1-.243-.13c-.092-.094-.112-.21-.01-.348zm.435-.176c.09.094.058.203-.045.312l-.263-.273c.128-.113.232-.118.308-.04zM18.656 11.013c-.22-.229-.502-.202-.73.035-.242.25-.255.529-.034.757.22.228.491.213.732-.036.23-.238.254-.527.032-.756zm-.158.163c.088.091.061.203-.094.364-.161.167-.268.194-.356.103-.087-.091-.062-.202.098-.367.156-.163.264-.19.352-.1zM18.414 12.299l.213.221.501-.52c.092-.01.163-.002.209.045.052.055.039.103-.05.195l-.465.482.213.221.527-.546c.137-.142.14-.3.018-.427a.387.387 0 0 0-.33-.12l.068-.101-.187-.194zM20.357 14.36a.85.85 0 0 0 .421.241l.465-.481-.349-.362-.132.182.118.122-.215.223a.346.346 0 0 1-.145-.091c-.124-.13-.098-.276.147-.53.236-.245.42-.249.548-.117.066.068.089.143.095.253l.237-.004a.605.605 0 0 0-.181-.428c-.243-.252-.607-.273-.925.057-.322.333-.35.66-.084.935zM22.246 14.006c-.074-.077-.18-.077-.247-.007-.069.071-.068.179.007.256.074.077.177.077.246.005a.18.18 0 0 0-.006-.254zm-.247.522l-.41-.424-.145.15.196.204-.426.441-.203-.21-.145.151.6.622.145-.151-.184-.19zM22.341 16.283l.067-.214a.357.357 0 0 1-.158-.097c-.072-.074-.076-.134-.004-.208l.325-.338.21.217.168-.13-.23-.24.18-.187-.239-.195-.155.161-.15-.155-.147.153.15.155-.326.338c-.165.17-.178.37.01.564a.607.607 0 0 0 .3.176zM22.888 16.937l.222.23.936-.971-.222-.23-.36.373-.226-.236.36-.372-.222-.23-.936.97.221.23.395-.408.227.235zM24.205 16.814l-.214-.221-.517.536c-.137.142-.157.3-.018.444.087.09.208.14.327.118l-.074.096.186.194.718-.744-.214-.221-.504.522c-.078.02-.156 0-.2-.045-.046-.047-.051-.098.02-.17zM24.942 17.73l.38-.395-.236-.198-1.002 1.04.189.195.073-.059c-.015.103.018.2.09.275.186.193.449.13.67-.1.234-.242.3-.478.117-.669a.32.32 0 0 0-.281-.09zm-.407.64c-.046-.048-.055-.106-.04-.177l.302-.314c.084-.022.151-.016.2.034.068.07.065.165-.113.35-.162.168-.273.185-.349.106z"/>
  </g>
</svg>
