<?xml version="1.0" encoding="utf-8"?>
<!-- Generator: Adobe Illustrator 22.0.0, SVG Export Plug-In . SVG Version: 6.00 Build 0)  -->
<svg version="1.1" id="Layer_1" xmlns="http://www.w3.org/2000/svg" xmlns:xlink="http://www.w3.org/1999/xlink" x="0px" y="0px"
	 viewBox="0 0 130 40" style="enable-background:new 0 0 130 40;" xml:space="preserve">
<style type="text/css">
	.st0{fill:url(#SVGID_1_);}
	.st1{opacity:0.15;enable-background:new    ;}
	.st2{fill:url(#SVGID_2_);}
	.st3{fill:url(#SVGID_3_);}
	.st4{fill:url(#SVGID_4_);}
	.st5{fill:url(#SVGID_5_);}
	.st6{fill:#FFFFFF;}
</style>
<g>
	
		<linearGradient id="SVGID_1_" gradientUnits="userSpaceOnUse" x1="35.4787" y1="29.0137" x2="21.0696" y2="38.3964" gradientTransform="matrix(1 0 0 -1 0 40.11)">
		<stop  offset="0" style="stop-color:#80C3E6"/>
		<stop  offset="1" style="stop-color:#3380C2"/>
	</linearGradient>
	<polygon class="st0" points="30.7,16.8 38.8,3.9 19.3,3.9 16.7,8.2 	"/>
	<polygon class="st1" points="16.7,8.2 18,6 30.7,16.8 	"/>
	
		<linearGradient id="SVGID_2_" gradientUnits="userSpaceOnUse" x1="38.0072" y1="7.3454" x2="27.236" y2="14.4585" gradientTransform="matrix(1 0 0 -1 0 40.11)">
		<stop  offset="0" style="stop-color:#F38649"/>
		<stop  offset="0.1849" style="stop-color:#F28147"/>
		<stop  offset="0.4091" style="stop-color:#EF7242"/>
		<stop  offset="0.6537" style="stop-color:#EA5A3A"/>
		<stop  offset="0.911" style="stop-color:#E4382E"/>
		<stop  offset="1" style="stop-color:#E12A29"/>
	</linearGradient>
	<polygon class="st2" points="35,40.2 35,20.8 30.8,18.2 22,32.1 	"/>
	<polygon class="st1" points="22,32.1 24.1,33.5 30.8,18.2 	"/>
	
		<linearGradient id="SVGID_3_" gradientUnits="userSpaceOnUse" x1="2.5146" y1="22.54" x2="23.1214" y2="35.4165" gradientTransform="matrix(1 0 0 -1 0 40.11)">
		<stop  offset="0" style="stop-color:#42AB4A"/>
		<stop  offset="1" style="stop-color:#ADD155"/>
	</linearGradient>
	<polygon class="st3" points="3.7,0 3.7,19.4 8.2,22 30.7,16.8 	"/>
	
		<linearGradient id="SVGID_4_" gradientUnits="userSpaceOnUse" x1="7.0141" y1="-0.5055" x2="23.7641" y2="26.3001" gradientTransform="matrix(1 0 0 -1 0 40.11)">
		<stop  offset="0" style="stop-color:#42AB4A"/>
		<stop  offset="1" style="stop-color:#ADD155"/>
	</linearGradient>
	<polygon class="st4" points="8.1,23.5 0,36.2 19.4,36.2 30.8,18.2 	"/>
</g>
<g>
	<path d="M42.9,28.9h2.5L46.7,13h-2.6v-2.2h5.7L55,23.2c0.3,0.8,0.5,1.5,0.5,1.5h0.1c0,0,0.1-0.6,0.5-1.5l5.2-12.4h5.7V13h-2.6
		l1.3,15.9h2.5v2.2h-7.8v-2.2h2.4l-0.9-12.1c0-0.6,0.1-1.7,0.1-1.7h-0.1c0,0-0.2,1-0.5,1.6l-4.6,10.7h-2.5l-4.6-10.7
		c-0.2-0.6-0.5-1.6-0.5-1.6h-0.1c0,0,0.1,1,0.1,1.7l-0.9,12.1h2.4v2.2h-7.8L42.9,28.9L42.9,28.9z"/>
	<path d="M80.1,10.4c5.8,0,10.4,4.5,10.4,10.4c0,6-4.5,10.7-10.4,10.7c-5.9,0-10.4-4.7-10.4-10.7C69.7,15,74.2,10.4,80.1,10.4z
		 M80.1,28.9c4.1,0,7.4-3.5,7.4-8.1c0-4.4-3.3-7.8-7.4-7.8c-4.1,0-7.4,3.4-7.4,7.8C72.6,25.4,75.9,28.9,80.1,28.9z"/>
	<path d="M92.3,28.9h2.5V13h-2.5v-2.2h8.6c1.7,0,2.9,0.1,4.3,0.5c3.9,1.2,6.4,4.7,6.4,9.7c0,4.9-2.4,8.3-6.4,9.6
		c-1.3,0.4-2.7,0.5-4.3,0.5h-8.6V28.9z M100.8,28.8c1.3,0,2.4-0.1,3.4-0.5c2.7-1,4.4-3.6,4.4-7.3c0-3.7-1.7-6.4-4.4-7.3
		c-1.1-0.4-2.1-0.5-3.5-0.5h-3.1v15.6H100.8z"/>
	<path d="M112.6,28.9h1.9l5.2-8l-5.1-7.8h-1.9v-2.2h6.4V13h-1.5l3.3,5.3c0.3,0.4,0.5,0.8,0.5,0.8h0.1c0,0,0.2-0.4,0.5-0.8l3.2-5.3
		h-1.4v-2.2h6.2V13h-1.9l-5.2,8.1l5.1,7.8h1.9v2.2h-6.4v-2.2h1.5l-3.4-5.3c-0.3-0.5-0.5-0.8-0.5-0.8h-0.1c0,0-0.2,0.4-0.5,0.8
		l-3.3,5.3h1.5v2.2h-6.2L112.6,28.9L112.6,28.9z"/>
</g>
<g>
	
		<linearGradient id="SVGID_5_" gradientUnits="userSpaceOnUse" x1="97.9777" y1="68.6832" x2="110.2588" y2="53.4425" gradientTransform="matrix(0.9985 -4.472796e-02 3.962222e-02 0.9876 -87.7188 -47.0171)">
		<stop  offset="0" style="stop-color:#F21706"/>
		<stop  offset="1" style="stop-color:#ED6414"/>
	</linearGradient>
	<path class="st5" d="M26.1,13.2l-11.9,2.9c-1.6,0.4-3.2-0.6-3.6-2.2L9,7.7c-0.4-1.6,0.6-3.2,2.2-3.6l11.9-2.9
		c1.6-0.4,3.2,0.6,3.6,2.2l1.5,6.2C28.7,11.2,27.7,12.8,26.1,13.2z"/>
</g>
<path class="st6" d="M15,6.6c0.7-0.2,1.3-0.2,1.7,0c0.5,0.2,0.7,0.5,0.9,1.1c0.1,0.3,0.1,0.5,0,0.8c-0.1,0.2-0.3,0.5-0.5,0.6
	c0.4,0,0.7,0.1,0.9,0.3c0.2,0.2,0.4,0.5,0.5,0.8c0.1,0.6,0.1,1-0.2,1.4c-0.3,0.4-0.8,0.6-1.5,0.8l-2.9,0.7l-0.2-0.7l0.6-0.3l-1-4.2
	l-0.7,0l-0.2-0.7l0.6-0.2L15,6.6z M14.8,9.2L15.7,9c0.3-0.1,0.5-0.2,0.7-0.4c0.1-0.2,0.2-0.4,0.1-0.6c-0.1-0.3-0.2-0.4-0.4-0.5
	c-0.2-0.1-0.5-0.1-0.8,0l-0.8,0.2L14.8,9.2z M15,10l0.4,1.7l1.1-0.3c0.3-0.1,0.5-0.2,0.7-0.4c0.1-0.2,0.2-0.4,0.1-0.7
	c-0.1-0.3-0.2-0.5-0.4-0.6c-0.2-0.1-0.4-0.1-0.7-0.1L15,10z"/>
<path class="st6" d="M20.7,6l-0.5,0.2l1.4,1.7l0,0l0.4-2.1l-0.5,0L21.4,5l2.2-0.5l0.2,0.7l-0.5,0.2l-0.9,3.4l0.3,1.2l0.7,0l0.2,0.7
	l-2.4,0.6L21,10.6l0.6-0.3L21.3,9L19,6.5l-0.5,0l-0.2-0.7l2.2-0.5L20.7,6z"/>
</svg>
