<svg viewBox="0 0 90 90" version="1.1" xmlns="http://www.w3.org/2000/svg" xmlns:xlink="http://www.w3.org/1999/xlink" xmlns:sketch="http://www.bohemiancoding.com/sketch/ns">
    <g stroke="none" stroke-width="1" fill="none" fill-rule="evenodd">
        <g fill="#E0BF02">
            <path d="M42.0747605,0.0967567706 C48.1753664,-0.305618258 54.3574665,0.550065347 60.1155421,2.60650734 C68.8583432,5.70581374 76.5697332,11.6064653 81.8770439,19.210844 C84.6847742,23.2129475 86.8316374,27.6785463 88.2004855,32.3720728 C89.9105907,38.2243374 90.407196,44.4242235 89.6673814,50.475129 C88.5099089,60.2454569 83.9933467,69.5688428 77.0714319,76.5581989 C70.0451027,83.7436492 60.54084,88.4575491 50.5577988,89.6570341 C45.0671261,90.3395437 39.4529388,90.0008356 34.0832341,88.6638299 C25.3327929,86.5017008 17.3005195,81.6006202 11.3310683,74.8544717 C4.68674319,67.4016203 0.632406049,57.6809527 0.0861401469,47.7068907 C-0.38372493,40.2056524 1.07553084,32.591087 4.29455228,25.7990984 C8.54498487,16.7507536 15.9112978,9.21768187 24.8552878,4.75335639 C30.2046189,2.06661174 36.1002159,0.472391687 42.0747605,0.0967567706 L42.0747605,0.0967567706 Z M43.7338032,1.69935113 C37.3706793,1.89939648 31.0496026,3.49721098 25.3821667,6.4048766 C17.255614,10.5561363 10.4975025,17.3296466 6.36287358,25.4639749 C1.76190437,34.4532742 0.515782,45.0684198 2.7723083,54.8986741 C3.82603345,59.5201041 5.64679917,63.9669722 8.15178545,67.9920886 C13.1834186,76.112401 20.9328218,82.5393359 29.8977676,85.867479 C40.4808887,89.8429027 52.6172032,89.4759405 62.9238329,84.8226562 C71.6135615,80.9364247 78.9335748,74.0966574 83.4440791,65.7189617 C88.3011532,56.7653393 89.774075,46.0750175 87.6678988,36.1211683 C86.6702364,31.358305 84.8558415,26.766181 82.324098,22.6098246 C77.633938,14.8985221 70.5126927,8.6754551 62.2001136,5.14216993 C56.3950691,2.65880433 50.0408643,1.49803159 43.7338032,1.69935113 L43.7338032,1.69935113 Z" id="Shape" sketch:type="MSShapeGroup"/>
            <path d="M41.2795486,14.6823628 C42.1626324,14.2710011 43.2304883,14.7661587 43.7185418,15.550793 C45.4311891,18.1548141 47.3158657,20.6382199 49.1228105,23.1749504 C51.7134443,23.1508273 54.2887867,22.7877118 56.8819691,22.8143741 C57.7140812,22.7813636 58.5920678,22.710264 59.3732082,23.0606833 C59.8612617,23.2727123 60.2856007,23.722163 60.3327494,24.2655667 C60.3174579,25.506 59.8179358,26.6715248 59.2852821,27.769759 C61.4197198,27.703738 63.5528831,27.5005964 65.6898693,27.5729656 C66.5181585,27.6148635 67.3438992,28.3626785 67.1999043,29.2323784 C66.9310288,30.4182173 66.3397578,31.4948677 65.8568014,32.6007197 C67.6650205,32.4889918 69.4732396,32.3772639 71.2840073,32.2896591 C71.9147814,32.2807717 72.6028986,32.2071329 73.1712324,32.5448557 C73.7650521,32.94733 73.9052241,33.7764016 73.7000633,34.425185 C72.9201971,36.7397293 71.6599232,38.8460536 70.6659761,41.0679146 C70.3270147,41.796685 69.9409045,42.6371833 69.1342782,42.940626 C68.2881489,43.1628122 67.399968,43.1044089 66.5398215,43.2313724 C67.0100349,44.7904841 67.7057978,46.4625932 67.1616755,48.0966133 C66.6978336,49.1681851 66.1396941,50.197859 65.6146861,51.2414988 C65.2527874,52.0007405 64.7379738,52.6749166 64.3697037,53.431619 C61.7981842,58.6510879 59.1986303,63.8603998 56.6258366,69.0811384 C56.2129662,69.8987832 55.5490606,70.5513756 54.8711377,71.1531825 C54.662154,71.3309314 54.4582674,71.5315337 54.189392,71.6153296 C52.9405867,72.0330395 51.7236386,72.584061 50.4123931,72.7846633 C49.7637789,72.8671896 49.1062447,72.8722681 48.4538076,72.8570325 C47.0813961,72.7719669 45.8083793,72.2069794 44.5022309,71.8375157 C43.0915906,72.2856968 41.6809503,72.8252916 40.1887554,72.9116268 C39.5095583,72.9217839 38.8227154,72.9357498 38.1524382,72.8062471 C37.1559426,72.6475427 36.2193386,72.2336418 35.2279401,72.0698589 C33.9880549,72.250147 32.9036331,72.9966923 31.6446335,73.0931846 C29.2120117,73.3610775 26.5436461,73.3509204 24.4206771,71.9733666 C23.3706613,71.2192035 22.191942,70.5754986 21.4069786,69.520432 C20.1492533,67.8292784 19.0903174,65.942601 18.637944,63.8705569 C18.2161537,62.2022567 18.550018,60.4628569 19.092866,58.8631169 C19.4203588,57.7179063 20.04731,56.6920413 20.5468321,55.6179302 C24.2945223,48.0267833 28.149253,40.4876915 31.8969431,32.8965446 C33.0705652,30.8562414 35.472604,30.0703374 37.6236074,29.5129677 C36.9316673,28.4502833 36.0090806,27.4701252 35.7414794,26.1954118 C35.5923874,25.5313927 35.7988225,24.8546773 36.1212182,24.2757238 C37.503824,21.4749093 38.9068186,18.6855215 40.2881501,15.8859766 C40.5289912,15.4276384 40.7660093,14.8931221 41.2795486,14.6823628 L41.2795486,14.6823628 Z M37.1853699,25.2835923 C36.9980433,25.6292535 36.9381497,26.0714965 37.1726266,26.4120745 C38.0824989,27.9637376 39.1924412,29.3895901 40.1112338,30.9374407 C37.9576145,30.9387115 35.6485268,31.289456 33.9409232,32.7064129 C33.0705552,33.345632 32.6653179,34.380074 32.2231251,35.3230175 C28.2523098,43.3177041 24.3362907,51.3390778 20.3743957,59.3388477 C20.0494413,59.9907749 19.8901499,60.7151385 19.8493713,61.4395021 C19.7219382,65.5302502 22.2247243,69.5599992 25.947045,71.276868 C29.5954546,72.5032029 33.8963217,71.6695493 36.7470001,69.0656528 C37.3484843,68.5103074 37.663244,67.7389237 38.017508,67.022185 C42.0405709,58.8851673 46.0674568,50.7494204 50.0879711,42.6111319 C50.5556505,41.7126669 50.6741633,40.6591626 50.5186949,39.6653866 C50.2447138,37.8875188 49.2723992,36.3244184 48.2567574,34.8744204 C50.2141298,34.6698195 52.1931658,34.6596529 54.1365206,34.3266999 C55.7944252,31.0645221 57.4166485,27.7820112 58.9751553,24.4702717 C55.4159489,24.0509033 51.8592911,24.9074315 48.2949874,24.6608937 C47.5278401,23.9454258 46.9671345,23.0520441 46.3822166,22.1904326 C45.9311034,21.5067351 45.4200967,20.8649743 44.9536915,20.1927141 C43.9380498,18.7554242 42.9848502,17.2698434 41.8379523,15.931677 C40.2705252,19.0400864 38.760443,22.1789953 37.1853699,25.2835923 L37.1853699,25.2835923 Z M58.885166,29.0736082 C58.0052804,30.4302837 57.4357172,31.9511348 56.701415,33.3854437 C56.3476728,34.0930531 56.0692765,34.9075675 55.3975496,35.384822 C54.0975153,36.086068 52.5701667,35.8811667 51.1539211,36.0313428 C52.1065985,37.7940028 52.6812698,39.8646511 52.25729,41.8627567 C52.0899968,42.7510864 51.6111041,43.5261478 51.2267128,44.3304807 C47.2372168,52.3279938 43.3128501,60.3573239 39.347618,68.3675638 C39.1841559,68.7048236 39.0321873,69.0535376 38.7946565,69.3475264 C38.2595736,70.0322275 37.4971763,70.4840285 36.8944099,71.100005 C39.9286745,72.1334201 43.4507712,71.3405413 45.8861006,69.305528 C46.7123503,68.6577345 47.0673695,67.653591 47.5296606,66.7538071 C50.8461527,60.0747892 54.1511513,53.3894079 57.457427,46.7052992 C58.0078344,45.5789786 58.7114876,44.4373857 58.6642368,43.1367081 C58.5327009,41.3218682 57.5493744,39.7297471 56.5290136,38.2750754 C57.9669689,38.1567162 59.4036472,38.0052675 60.8454338,37.955633 C61.2796299,37.9225434 61.8338684,37.8869083 62.0586288,37.4491069 C63.4161301,34.5664896 64.8885658,31.7385974 66.242236,28.8534348 C63.7877509,28.6281706 61.3396511,29.0634268 58.885166,29.0736082 L58.885166,29.0736082 Z M65.400079,34.100636 C64.5783039,35.5353122 64.0198036,37.1080111 63.1264587,38.5034332 C62.0644134,39.7469037 60.2559971,39.5379702 58.7824253,39.6342062 C59.4802312,41.268952 60.1460862,43.0189278 59.9249866,44.8258854 C59.7332817,45.6451576 59.2859702,46.373259 58.9063945,47.1165555 C55.2691132,54.3697111 51.6727289,61.6431269 48.049506,68.9038801 C47.5894142,69.8586426 46.6014949,70.3600828 45.8385093,71.0413324 C47.853967,71.669399 50.1033047,71.7846289 52.0957578,71.0147409 C53.4249119,70.4791115 54.8102994,69.7370813 55.497881,68.4264989 C57.8175105,63.6970058 60.1972076,58.9953706 62.5475098,54.2798064 C63.5456534,52.3044358 64.4913977,50.30374 65.5214921,48.3448308 C65.7707085,47.8446568 65.9573013,47.2988974 65.9176823,46.7328777 C65.9010678,45.0348188 64.9808842,43.5279656 64.0249157,42.1831941 C65.5879498,41.9527341 67.1816567,42.0401063 68.7395786,41.7653272 C70.1070737,39.1542925 71.4208914,36.5154 72.6708075,33.8473834 C70.2425452,33.734686 67.8232291,33.9980687 65.400079,34.100636 L65.400079,34.100636 Z" id="Shape" sketch:type="MSShapeGroup"/>
        </g>
    </g>
</svg>